<svg xmlns="http://www.w3.org/2000/svg" xmlns:xlink="http://www.w3.org/1999/xlink" viewBox="0 0 95.48099999999998 84.11942235039139" height="84.11942235039139" width="95.48099999999998" data-background-color="#000000" preserveAspectRatio="xMidYMid meet" id="tight-bounds"><g><svg viewBox="0 0 95.48099999999998 84.11942235039139" height="84.11942235039139" width="95.48099999999998"><g><svg viewBox="0 0 95.48099999999998 84.11942235039139" height="84.11942235039139" width="95.48099999999998"><g id="textblocktransform"><svg viewBox="0 0 95.48099999999998 84.11942235039139" height="84.11942235039139" width="95.48099999999998" id="textblock"><g><svg viewBox="0 0 95.48099999999998 84.11942235039139" height="84.11942235039139" width="95.48099999999998"><g><svg viewBox="0 0 95.48099999999998 84.11942235039139" height="84.11942235039139" width="95.48099999999998"><g><svg xmlns="http://www.w3.org/2000/svg" xmlns:xlink="http://www.w3.org/1999/xlink" version="1.1" x="0" y="0" viewBox="6.300000190734863 11.5 87.39999389648438 77" style="enable-background:new 0 0 100 100;" xml:space="preserve" height="84.11942235039139" width="95.48099999999998" class="icon-icon-0" data-fill-palette-color="accent" id="icon-0"><path d="M72.3 12.3L71.9 11.5H28.2L6.3 50 28.1 88.5H71.8L93.7 50zM33.3 25.3L9.9 47.7 28.5 14.9zM70.7 14.8L77.1 50.5 36.9 25.8zM35.5 27.3L76.5 52.5 35.5 75.8zM77 54.5L69.8 85.3 37.2 77.2zM33.5 75L9.9 50.5 33.5 27.8zM33.2 77.6L28.6 85.3 11.5 55.1zM35 78.6L66.4 86.5H30.2zM79.3 53.3L90.9 50.8 72.1 84zM90.7 48.9L79.3 51.4 73.4 18.3zM35 24.3L30 13.5H68.2z" fill="#00ff73" data-fill-palette-color="accent"/></svg></g></svg></g></svg></g></svg></g></svg></g><g/></svg></g><defs/></svg>
